Coordinates
version=1
nRows=54
nColumns=12
inDegrees=yes

Units are S.I. units (second, meters, Newtons, ...)
Angles are in degrees

endheader
time	SC_y	SC_z	SC_x	AC_y	AC_z	AC_x	GH_y	GH_z	GH_yy	EL_x	PS_y
       0.0              -48.26          3.797          35.69          36.81          -18.2         -19.46         -63.71          58.85          48.24          63.78           44.0
   0.04806              -48.25          3.799          35.69          36.81          -18.2         -19.46         -63.68          58.85          48.23          63.77          44.01
   0.09613              -48.25          3.801           35.7          36.82          -18.2         -19.46         -63.65          58.85          48.22          63.77          44.02
    0.1442              -48.24          3.803           35.7          36.82         -18.19         -19.45         -63.62          58.85          48.22          63.76          44.02
    0.1923              -48.23          3.805           35.7          36.83         -18.19         -19.45         -63.58          58.85          48.21          63.75          44.03
    0.2403              -48.23          3.808           35.7          36.83         -18.19         -19.45         -63.55          58.85           48.2          63.74          44.04
    0.2884              -48.22           3.81           35.7          36.84         -18.18         -19.44         -63.51          58.85          48.19          63.72          44.05
    0.3364              -48.21          3.813          35.71          36.84         -18.18         -19.44         -63.46          58.85          48.18          63.71          44.05
    0.3845               -48.2          3.816          35.71          36.85         -18.17         -19.43         -63.42          58.85          48.17           63.7          44.06
    0.4326               -48.2          3.819          35.71          36.86         -18.17         -19.43         -63.37          58.85          48.16          63.69          44.07
    0.4806              -48.19          3.822          35.71          36.86         -18.16         -19.42         -63.32          58.85          48.15          63.67          44.08
    0.5287              -48.18          3.826          35.72          36.87         -18.16         -19.41         -63.26          58.85          48.14          63.65          44.09
    0.5768              -48.17           3.83          35.72          36.88         -18.15         -19.41          -63.2          58.85          48.13          63.64          44.11
    0.6248              -48.15          3.834          35.72          36.89         -18.15          -19.4         -63.13          58.85          48.11          63.62          44.12
    0.6729              -48.14          3.838          35.73           36.9         -18.14         -19.39         -63.06          58.85           48.1           63.6          44.13
     0.721              -48.13          3.843          35.73          36.91         -18.13         -19.39         -62.98          58.85          48.08          63.58          44.15
     0.769              -48.11          3.849          35.74          36.92         -18.12         -19.38          -62.9          58.85          48.06          63.55          44.17
    0.8171               -48.1          3.855          35.74          36.93         -18.11         -19.37         -62.81          58.85          48.04          63.53          44.19
    0.8651              -48.08          3.861          35.75          36.95          -18.1         -19.36         -62.71          58.85          48.02           63.5          44.21
    0.9132              -48.06          3.868          35.75          36.96         -18.09         -19.34          -62.6          58.85          47.99          63.47          44.23
    0.9613              -48.04          3.876          35.76          36.98         -18.08         -19.33         -62.48          58.85          47.97          63.43          44.25
     1.009              -48.01          3.884          35.77           37.0         -18.07         -19.32         -62.34          58.85          47.94           63.4          44.28
     1.057              -47.99          3.893          35.78          37.02         -18.05          -19.3          -62.2          58.85          47.91          63.35          44.31
     1.105              -47.96          3.904          35.79          37.04         -18.04         -19.28         -62.03          58.85          47.87          63.31          44.34
     1.154              -47.93          3.915           35.8          37.07         -18.02         -19.27         -61.85          58.85          47.83          63.26          44.38
     1.202              -47.89          3.928          35.81           37.1          -18.0         -19.24         -61.65          58.85          47.79           63.2          44.42
      1.25              -47.85          3.942          35.82          37.13         -17.97         -19.22         -61.43          58.85          47.74          63.14          44.46
     1.298              -47.81          3.958          35.83          37.16         -17.95         -19.19         -61.17          58.85          47.68          63.06          44.51
     1.346              -47.75          3.977          35.85           37.2         -17.92         -19.16         -60.89          58.85          47.62          62.98          44.57
     1.394               -47.7          3.997          35.87          37.25         -17.89         -19.13         -60.56          58.85          47.55          62.89          44.64
     1.442              -47.63          4.021          35.89           37.3         -17.85         -19.09         -60.19          58.85          47.47          62.79          44.71
      1.49              -47.55          4.048          35.91          37.36         -17.81         -19.04         -59.76          58.85          47.38          62.67           44.8
     1.538              -47.47          4.079          35.94          37.43         -17.76         -18.99         -59.27          58.85          47.27          62.53           44.9
     1.586              -47.36          4.116          35.97          37.51          -17.7         -18.93          -58.7          58.85          47.15          62.36          45.01
     1.634              -47.25          4.158          36.01           37.6         -17.63         -18.86         -58.03          58.85           47.0          62.18          45.14
     1.682              -47.11          4.208          36.05          37.71         -17.56         -18.78         -57.24          58.85          46.83          61.95           45.3
      1.73              -46.94          4.268           36.1          37.84         -17.46         -18.68          -56.3          58.85          46.63          61.69          45.49
     1.778              -46.74          4.339          36.17           38.0         -17.35         -18.56         -55.17          58.85          46.38          61.37          45.72
     1.826               -46.5          4.426          36.24          38.19         -17.21         -18.41         -53.81          58.85          46.08          60.98          45.99
     1.874               -46.2          4.532          36.34          38.42         -17.05         -18.24         -52.15          58.86          45.72          60.51          46.32
     1.923              -45.84          4.662          36.45           38.7         -16.84         -18.02          -50.1          58.86          45.28          59.94          46.74
     1.971              -45.38          4.824          36.59          39.06         -16.59         -17.75         -47.54          58.86          44.72          59.21          47.25
     2.019              -44.81          5.029          36.77          39.51         -16.26         -17.41         -44.32          58.86          44.02           58.3           47.9
     2.067              -44.08          5.289           37.0          40.08         -15.85         -16.97         -40.22          58.87          43.13          57.14          48.72
     2.115              -43.15          5.622          37.29          40.81         -15.33         -16.41         -34.98          58.87          41.99          55.66          49.77
     2.163              -41.95           6.05          37.66          41.74         -14.66          -15.7         -28.25          58.88          40.53          53.76          51.12
     2.211              -40.42          6.596          38.14          42.94          -13.8         -14.79         -19.65          58.89          38.66          51.33          52.85
     2.259               -38.5          7.283          38.74          44.44         -12.71         -13.64         -8.843           58.9          36.31          48.27          55.01
     2.307              -36.16          8.119          39.48          46.27          -11.4         -12.25          4.329          58.91          33.44          44.55          57.66
     2.355              -33.44          9.089          40.33           48.4          -9.87         -10.63           19.6          58.93          30.12          40.24          60.72
     2.403               -30.5          10.14          41.25           50.7         -8.216         -8.873          36.13          58.94          26.53          35.56          64.04
     2.451              -27.56          11.19          42.17           53.0         -6.562          -7.12          52.66          58.96          22.93          30.89          67.36
     2.499              -24.85          12.16          43.02          55.12         -5.035         -5.501          67.93          58.98          19.62          26.58          70.42
     2.547               -22.5           13.0          43.75          56.95         -3.717         -4.104           81.1          58.99          16.75          22.85          73.06
